<?xml version="1.0" encoding="UTF-8"?>
<svg id="Layer_1" xmlns="http://www.w3.org/2000/svg" version="1.1" viewBox="0 0 2000 2000">
  <!-- Generator: Adobe Illustrator 29.1.0, SVG Export Plug-In . SVG Version: 2.1.0 Build 142)  -->
  <defs>
    <style>
      .st0 {
        fill: #f0f0f0;
      }

      .st1 {
        fill: #0a0a0a;
      }
    </style>
  </defs>
  <rect class="st0" width="2000" height="2000"/>
  <path class="st1" d="M287.1,773.55v-315.56s-.53-137.82,155.61-137.82h1129.42s124.61,12.27,143.65,136.88l3.46,276.91c-110.69-46.06-136.05-55.36-285.75-64.81-312.85-25.56-715.52,291.34-1099.12,130.42"/>
  <path class="st1" d="M285.38,1069.28l2.61,230.73s5.58,121.15,173.4,124.93c9.88.22,19.5,3.31,28.12,8.15,26.97,15.15,77.98,55.7,76.82,145.27-.3,23.38,6.75,46.35,20.92,64.94,23.01,30.17,66.47,57.72,141.77,13.15,0,0,307.94-232.26,480.17-234.87h341.86s167.02-9.13,167.02-174.85v-215.3s-211.38-172.24-705.91,19.57c-482.78,182.67-726.78,18.27-726.78,18.27Z"/>
</svg>